<?xml version="1.0" encoding="UTF-8" standalone="no"?> <svg width="64" height="64" viewBox="0 0 64 64" fill="none" xmlns="http://www.w3.org/2000/svg">
<path d="M52.22 5.33007L23.78 2.14007C23.4995 2.10902 23.2156 2.13769 22.9469 2.2242C22.6783 2.31071 22.431 2.4531 22.2213 2.64201C22.0116 2.83091 21.8443 3.06206 21.7303 3.32026C21.6163 3.57845 21.5583 3.85784 21.56 4.14007V6.00007H12C11.4696 6.00007 10.9609 6.21078 10.5858 6.58586C10.2107 6.96093 10 7.46964 10 8.00007V56.0001C10 56.5305 10.2107 57.0392 10.5858 57.4143C10.9609 57.7894 11.4696 58.0001 12 58.0001H21.56V59.8901C21.56 60.4205 21.7707 60.9292 22.1458 61.3043C22.5209 61.6794 23.0296 61.8901 23.56 61.8901C23.76 61.8901 52 58.7101 52.22 58.6901C52.7114 58.6357 53.1653 58.4012 53.494 58.0319C53.8227 57.6625 54.003 57.1845 54 56.6901V7.31007C53.9981 6.81909 53.8156 6.34597 53.4874 5.98084C53.1591 5.6157 52.708 5.38408 52.22 5.33007V5.33007ZM21.56 54.0001H14V10.0001H21.56V54.0001ZM34 34.5601C34 35.0905 33.7893 35.5992 33.4142 35.9743C33.0391 36.3494 32.5304 36.5601 32 36.5601C31.4696 36.5601 30.9609 36.3494 30.5858 35.9743C30.2107 35.5992 30 35.0905 30 34.5601V29.4401C30 28.9096 30.2107 28.4009 30.5858 28.0259C30.9609 27.6508 31.4696 27.4401 32 27.4401C32.5304 27.4401 33.0391 27.6508 33.4142 28.0259C33.7893 28.4009 34 28.9096 34 29.4401V34.5601Z" fill="white"/>
</svg>
