<svg height="40" viewBox="0 0 40 40" width="40" xmlns="http://www.w3.org/2000/svg"><g fill="none" fill-rule="evenodd" transform="translate(8 1)"><path d="m12 24v13h7l2-13z" fill="#cce8ff"/><path d="m12 20h10v3h-10z" fill="#cce8ff"/><rect height="5" rx="1" stroke="#2196f3" stroke-width="2" width="22" x="1" y="19"/><path d="m2.5 24 2.5 13h14l2.5-13z" stroke="#2196f3" stroke-linejoin="round" stroke-width="2"/><path d="m11 12h2v8h-2z" fill="#2196f3"/><g stroke="#2196f3" stroke-width="2"><path d="m12 12c-3-3 .5-11.5 8-11.5 3 7-4.2416535 13.5-8 11.5z" stroke-linejoin="round"/><path d="m12 12 4-5.5"/><path d="m12 14c-2.5 2.5-11 2-12-7 9.5-2.5 11.5 3.7528704 12 7z" stroke-linejoin="round"/><path d="m12 14-6-3"/></g></g></svg>