<svg height="40" viewBox="0 0 40 40" width="40" xmlns="http://www.w3.org/2000/svg"><g fill="none" fill-rule="evenodd"><path d="m15 32h3v4h-3z" fill="#cce8ff"/><circle cx="16.5" cy="28.5" fill="#cce8ff" r="2.5"/><path d="m20 31.3286672v1.6713328h11v-19h-6c-.5522847 0-1-.4477153-1-1v-7h-15v27h4v-1.6713328c-.6253999-.7728631-1-1.7570189-1-2.8286672 0-2.4852814 2.0147186-4.5 4.5-4.5s4.5 2.0147186 4.5 4.5c0 1.0716483-.3746001 2.0558041-1 2.8286672zm-2 1.4152742c-.4691684.1658273-.9740469.2560586-1.5.2560586s-1.0308316-.0902313-1.5-.2560586v2.7790256l1.1286093-.4514437c.2384111-.0953644.5043703-.0953644.7427814 0l1.1286093.4514437zm-5 2.2560586h-4.5c-.82842712 0-1.5-.6715729-1.5-1.5v-28c0-.82842712.67157288-1.5 1.5-1.5h17.9599349l6.5400651 7.6300759v21.8699241c0 .8284271-.6715729 1.5-1.5 1.5h-11.5v2c0 .7074646-.7145263 1.1912224-1.3713907.9284767l-2.1286093-.8514437-2.1286093.8514437c-.6568644.2627457-1.3713907-.2210121-1.3713907-.9284767zm17.6153846-23-4.6153846-6v6zm-7.6153846 14h4v2h-4zm-10-10h14v2h-14zm0 4h14v2h-14zm3.5 11c1.3807119 0 2.5-1.1192881 2.5-2.5s-1.1192881-2.5-2.5-2.5-2.5 1.1192881-2.5 2.5 1.1192881 2.5 2.5 2.5z" fill="#2196f3"/></g></svg>