<svg height="40" viewBox="0 0 40 40" width="40" xmlns="http://www.w3.org/2000/svg"><g fill="none" fill-rule="evenodd" transform="translate(5 5)"><path d="m18 28 2.8-4h-7.8l2 4z" fill="#cce8ff"/><path d="m8 0 5 24h6.87l-7.87-24z" fill="#cce8ff"/><path d="m3 24h16.1125741c.5522848 0 1-.4477153 1-1 0-.1074821-.0173279-.2142613-.0513167-.3162278l-7.3333333-21.99999997c-.1361141-.40834213-.5182529-.68377223-.9486833-.68377223h-8.7792408c-1.65685425 0-3 1.34314575-3 3v18c0 1.6568542 1.34314575 3 3 3z" stroke="#2196f3" stroke-width="2"/><path d="m14 6h14c1.6568542 0 3 1.34314575 3 3v16c0 1.6568542-1.3431458 3-3 3h-12.2192236c-.4588676 0-.8588507-.3122974-.9701425-.7574644l-.8106339-3.2425356" stroke="#2196f3" stroke-width="2"/><path d="m7 7h2v2h-2z" fill="#2196f3"/><path d="m5.5 13.5h5m9.5-1.5h8m-4 0v-2.5m-4 11c3.3333333-2 5-4.8333333 5-8.5m-4 2.5c.3333333 3 2.3333333 5 6 6m-19-13.10000038-3.50952148 9.10488318m3.50952148-9.10488318 3.5092773 9.08095738" stroke="#2196f3" stroke-width="2"/></g></svg>