<svg height="40" viewBox="0 0 40 40" width="40" xmlns="http://www.w3.org/2000/svg"><g fill="none" fill-rule="evenodd" transform="translate(7 6)"><path d="m1 9v9h9l13 6.5v-5.5z" fill="#cce8ff"/><g stroke="#2196f3" stroke-width="2"><path d="m10 7v12h-8c-1.1045695 0-2-.8954305-2-2v-8c-0-1.1045695.8954305-2 2-2z"/><path d="m25 16.8739825c1.7252272-.4440428 3-2.0101431 3-3.8739825s-1.2747728-3.42993972-3-3.87398251z" fill="#cce8ff"/><path d="m3 19 2 6.5c.66666667 1.3333333 1.66666667 1.8333333 3 1.5s2-1.1666667 2-2.5l-2-5.5m2-12c1.3382161-.33577474 3.3382161-1.16910807 6-2.5 2.1583634-1.07918171 4.3199374-2.26955399 6.4847218-3.57111682l.0000005.00000088c.4733199-.28458057 1.0877196-.13157711 1.3723002.34174278.093551.15559588.1429775.33372466.1429775.5152787l-.0000269 22.45433006c0 .5522699-.4477032.9999731-.9999731.9999731-.1788506 0-.3544281-.0479676-.508435-.138904-2.6198308-1.5469302-4.7836858-2.7473651-6.491565-3.6013047-2.0253906-1.0126953-4.0253906-1.8460286-6-2.5z" stroke-linejoin="round"/></g></g></svg>